<?xml version="1.0" encoding="UTF-8"?>
<svg xmlns="http://www.w3.org/2000/svg" xmlns:xlink="http://www.w3.org/1999/xlink" width="24px" height="24px" viewBox="0 0 24 24" version="1.1">
<g id="surface1">
<path style=" stroke:none;fill-rule:nonzero;fill:rgb(0%,0%,0%);fill-opacity:1;" d="M 11.363281 0.113281 C 10.667969 0.242188 10.21875 0.464844 9.394531 1.078125 L 8.828125 1.496094 L 5.972656 1.507812 L 3.117188 1.523438 L 2.890625 1.636719 C 2.632812 1.761719 2.363281 2.085938 2.3125 2.339844 C 2.265625 2.558594 2.265625 22.191406 2.3125 22.410156 C 2.363281 22.664062 2.632812 22.988281 2.890625 23.113281 L 3.117188 23.226562 L 11.929688 23.226562 C 16.777344 23.226562 20.816406 23.210938 20.910156 23.1875 C 21.164062 23.136719 21.488281 22.867188 21.613281 22.609375 L 21.726562 22.382812 L 21.726562 12.375 C 21.726562 3.304688 21.722656 2.351562 21.652344 2.203125 C 21.535156 1.949219 21.347656 1.753906 21.101562 1.632812 L 20.882812 1.523438 L 18.027344 1.507812 L 15.171875 1.496094 L 14.605469 1.078125 C 13.925781 0.570312 13.4375 0.308594 12.953125 0.183594 C 12.472656 0.0625 11.789062 0.03125 11.363281 0.113281 Z M 12.726562 0.867188 C 13.195312 0.984375 13.621094 1.234375 14.578125 1.929688 C 15.394531 2.535156 15.5 2.628906 15.617188 2.855469 C 15.742188 3.089844 15.75 3.140625 15.75 3.695312 C 15.75 4.234375 15.742188 4.292969 15.648438 4.390625 L 15.546875 4.5 L 8.464844 4.5 L 8.359375 4.398438 C 8.253906 4.304688 8.25 4.261719 8.25 3.683594 C 8.25 2.757812 8.210938 2.8125 9.5625 1.828125 C 10.375 1.238281 10.820312 0.984375 11.25 0.871094 C 11.597656 0.777344 12.375 0.777344 12.726562 0.867188 Z M 7.738281 2.515625 C 7.59375 2.804688 7.5 3.210938 7.5 3.542969 L 7.5 3.746094 L 6.273438 3.757812 C 5.101562 3.773438 5.03125 3.777344 4.875 3.875 C 4.785156 3.933594 4.667969 4.050781 4.617188 4.132812 C 4.523438 4.289062 4.523438 4.375 4.523438 12.375 L 4.523438 20.460938 L 4.625 20.625 C 4.683594 20.714844 4.800781 20.832031 4.882812 20.882812 C 5.039062 20.976562 5.125 20.976562 10.570312 20.976562 L 16.101562 20.976562 L 16.289062 20.875 C 16.390625 20.816406 17.125 20.125 17.914062 19.328125 C 19.289062 17.949219 19.355469 17.875 19.425781 17.621094 C 19.496094 17.390625 19.5 16.6875 19.492188 10.824219 L 19.476562 4.289062 L 19.375 4.125 C 19.164062 3.789062 19.105469 3.773438 17.734375 3.757812 L 16.5 3.746094 L 16.5 3.542969 C 16.5 3.210938 16.40625 2.808594 16.261719 2.523438 L 16.125 2.25 L 18.453125 2.25 C 20.78125 2.25 20.785156 2.25 20.890625 2.351562 L 21 2.453125 L 21 22.285156 L 20.898438 22.390625 L 20.796875 22.5 L 3.214844 22.5 L 3.109375 22.398438 L 3 22.296875 L 3 2.464844 L 3.101562 2.359375 L 3.203125 2.25 L 7.875 2.25 Z M 7.71875 4.71875 C 7.8125 4.878906 7.9375 4.988281 8.113281 5.085938 L 8.367188 5.226562 L 15.632812 5.226562 L 15.886719 5.085938 C 16.0625 4.988281 16.1875 4.878906 16.28125 4.71875 L 16.421875 4.5 L 18.75 4.5 L 18.75 17.25 L 17.640625 17.25 C 17.023438 17.25 16.4375 17.273438 16.339844 17.296875 C 16.101562 17.347656 15.847656 17.601562 15.796875 17.839844 C 15.773438 17.9375 15.75 18.523438 15.75 19.132812 L 15.75 20.25 L 5.25 20.25 L 5.25 4.5 L 7.578125 4.5 Z M 18.234375 18.015625 C 18.234375 18.019531 17.84375 18.414062 17.367188 18.890625 L 16.5 19.757812 L 16.5 18 L 17.367188 18 C 17.84375 18 18.234375 18.003906 18.234375 18.015625 Z M 18.234375 18.015625 "/>
<path style=" stroke:none;fill-rule:nonzero;fill:rgb(0%,0%,0%);fill-opacity:1;" d="M 11.691406 1.566406 C 11.386719 1.703125 11.203125 2.089844 11.292969 2.421875 C 11.441406 2.976562 12.097656 3.160156 12.507812 2.761719 C 13.085938 2.1875 12.441406 1.242188 11.691406 1.566406 Z M 11.691406 1.566406 "/>
<path style=" stroke:none;fill-rule:nonzero;fill:rgb(0%,0%,0%);fill-opacity:1;" d="M 6.234375 6.0625 C 6.042969 6.160156 5.996094 6.308594 6.007812 6.804688 C 6.023438 7.203125 6.039062 7.273438 6.125 7.363281 C 6.261719 7.5 6.488281 7.5 6.625 7.363281 C 6.71875 7.269531 6.726562 7.214844 6.726562 6.75 C 6.726562 6.300781 6.71875 6.226562 6.632812 6.144531 C 6.5 6.019531 6.371094 5.992188 6.234375 6.0625 Z M 6.234375 6.0625 "/>
<path style=" stroke:none;fill-rule:nonzero;fill:rgb(0%,0%,0%);fill-opacity:1;" d="M 8.109375 6.0625 C 7.917969 6.160156 7.871094 6.308594 7.882812 6.804688 C 7.898438 7.203125 7.914062 7.273438 8 7.363281 C 8.136719 7.5 8.363281 7.5 8.5 7.363281 C 8.59375 7.269531 8.601562 7.214844 8.601562 6.75 C 8.601562 6.300781 8.59375 6.226562 8.507812 6.144531 C 8.375 6.019531 8.246094 5.992188 8.109375 6.0625 Z M 8.109375 6.0625 "/>
<path style=" stroke:none;fill-rule:nonzero;fill:rgb(0%,0%,0%);fill-opacity:1;" d="M 9.984375 6.0625 C 9.792969 6.160156 9.746094 6.308594 9.757812 6.804688 C 9.773438 7.203125 9.789062 7.273438 9.875 7.363281 C 10.011719 7.5 10.238281 7.5 10.375 7.363281 C 10.46875 7.269531 10.476562 7.214844 10.476562 6.75 C 10.476562 6.300781 10.46875 6.226562 10.382812 6.144531 C 10.25 6.019531 10.121094 5.992188 9.984375 6.0625 Z M 9.984375 6.0625 "/>
<path style=" stroke:none;fill-rule:nonzero;fill:rgb(0%,0%,0%);fill-opacity:1;" d="M 11.859375 6.0625 C 11.667969 6.160156 11.621094 6.308594 11.632812 6.804688 C 11.648438 7.203125 11.664062 7.273438 11.75 7.363281 C 11.886719 7.5 12.113281 7.5 12.25 7.363281 C 12.34375 7.269531 12.351562 7.214844 12.351562 6.75 C 12.351562 6.300781 12.34375 6.226562 12.257812 6.144531 C 12.125 6.019531 11.996094 5.992188 11.859375 6.0625 Z M 11.859375 6.0625 "/>
<path style=" stroke:none;fill-rule:nonzero;fill:rgb(0%,0%,0%);fill-opacity:1;" d="M 13.734375 6.0625 C 13.542969 6.160156 13.496094 6.308594 13.507812 6.804688 C 13.523438 7.203125 13.539062 7.273438 13.625 7.363281 C 13.761719 7.5 13.988281 7.5 14.125 7.363281 C 14.21875 7.269531 14.226562 7.214844 14.226562 6.75 C 14.226562 6.300781 14.21875 6.226562 14.132812 6.144531 C 14 6.019531 13.871094 5.992188 13.734375 6.0625 Z M 13.734375 6.0625 "/>
<path style=" stroke:none;fill-rule:nonzero;fill:rgb(0%,0%,0%);fill-opacity:1;" d="M 15.609375 6.0625 C 15.414062 6.160156 15.371094 6.304688 15.382812 6.8125 C 15.398438 7.203125 15.417969 7.28125 15.5 7.367188 C 15.636719 7.5 15.863281 7.5 16 7.363281 C 16.09375 7.269531 16.101562 7.214844 16.101562 6.75 C 16.101562 6.300781 16.09375 6.226562 16.007812 6.144531 C 15.875 6.019531 15.746094 5.992188 15.609375 6.0625 Z M 15.609375 6.0625 "/>
<path style=" stroke:none;fill-rule:nonzero;fill:rgb(0%,0%,0%);fill-opacity:1;" d="M 17.484375 6.0625 C 17.292969 6.160156 17.246094 6.308594 17.257812 6.804688 C 17.273438 7.203125 17.289062 7.273438 17.375 7.363281 C 17.511719 7.5 17.738281 7.5 17.875 7.363281 C 17.96875 7.269531 17.976562 7.214844 17.976562 6.75 C 17.976562 6.300781 17.96875 6.226562 17.882812 6.144531 C 17.75 6.019531 17.621094 5.992188 17.484375 6.0625 Z M 17.484375 6.0625 "/>
<path style=" stroke:none;fill-rule:nonzero;fill:rgb(0%,0%,0%);fill-opacity:1;" d="M 11.515625 8.671875 C 10.589844 8.785156 9.679688 9.25 9.039062 9.933594 C 8.269531 10.742188 7.917969 11.640625 7.917969 12.75 C 7.917969 13.925781 8.289062 14.816406 9.140625 15.65625 C 10.027344 16.539062 11.199219 16.949219 12.425781 16.824219 C 14.179688 16.644531 15.59375 15.371094 16.011719 13.601562 C 16.125 13.144531 16.109375 12.265625 15.988281 11.804688 C 15.867188 11.324219 15.671875 10.867188 15.445312 10.519531 C 15.210938 10.164062 14.585938 9.539062 14.230469 9.304688 C 13.476562 8.8125 12.414062 8.5625 11.515625 8.671875 Z M 13.046875 9.53125 C 14.066406 9.863281 14.878906 10.671875 15.226562 11.703125 C 15.335938 12.03125 15.347656 12.140625 15.347656 12.75 C 15.347656 13.359375 15.335938 13.46875 15.226562 13.796875 C 14.878906 14.820312 14.070312 15.628906 13.046875 15.976562 C 12.71875 16.085938 12.609375 16.097656 12 16.097656 C 11.390625 16.097656 11.28125 16.085938 10.953125 15.976562 C 9.921875 15.628906 9.113281 14.8125 8.78125 13.796875 C 8.605469 13.261719 8.578125 12.492188 8.714844 11.949219 C 9.023438 10.71875 9.933594 9.792969 11.15625 9.46875 C 11.667969 9.332031 12.535156 9.359375 13.046875 9.53125 Z M 13.046875 9.53125 "/>
</g>
</svg>
